HIERARCHY
ROOT Hips
{
	OFFSET 0.00000 0.00000 0.00000
	CHANNELS 6 Xposition Yposition Zposition Zrotation Yrotation Xrotation 
	JOINT LHipJoint
	{
		OFFSET 0 0 0
		CHANNELS 3 Zrotation Yrotation Xrotation
		JOINT LeftHip
		{
			OFFSET 1.75344 -1.53157 0.77399
			CHANNELS 3 Zrotation Yrotation Xrotation
			JOINT LeftKnee
			{
				OFFSET 2.25415 -6.19323 0.00000
				CHANNELS 3 Zrotation Yrotation Xrotation
				JOINT LeftAnkle
				{
					OFFSET 2.30342 -6.32861 0.00000
					CHANNELS 3 Zrotation Yrotation Xrotation
					JOINT LeftToe
					{
						OFFSET 0.10958 -0.30108 1.49206
						CHANNELS 3 Zrotation Yrotation Xrotation
						End Site
						{
							OFFSET 0.00000 -0.00000 0.77783
						}
					}
				}
			}
		}
	}
	JOINT RHipJoint
	{
		OFFSET 0 0 0
		CHANNELS 3 Zrotation Yrotation Xrotation
		JOINT RightHip
		{
			OFFSET -1.81912 -1.53156 0.77399
			CHANNELS 3 Zrotation Yrotation Xrotation
			JOINT RightKnee
			{
				OFFSET -2.22882 -6.12365 0.00000
				CHANNELS 3 Zrotation Yrotation Xrotation
				JOINT RightAnkle
				{
					OFFSET -2.21943 -6.09785 0.00000
					CHANNELS 3 Zrotation Yrotation Xrotation
					JOINT RightToe
					{
						OFFSET -0.18931 -0.52012 1.59379
						CHANNELS 3 Zrotation Yrotation Xrotation
						End Site
						{
							OFFSET -0.00000 -0.00000 0.84686
						}
					}
				}
			}
		}
	}
	JOINT lowerback
	{
		OFFSET 0 0 0
		CHANNELS 3 Zrotation Yrotation Xrotation
		JOINT Chest
		{
			OFFSET -0.00200 1.66634 -0.14248
			CHANNELS 3 Zrotation Yrotation Xrotation
			JOINT Chest2
			{
				OFFSET -0.00875 1.64542 0.09514
				CHANNELS 3 Zrotation Yrotation Xrotation
				JOINT lowerneck
				{
					OFFSET 0 0 0
					CHANNELS 3 Zrotation Yrotation Xrotation
					JOINT Neck
					{
						OFFSET 0.02257 1.59605 0.00839
						CHANNELS 3 Zrotation Yrotation Xrotation
						JOINT Head
						{
							OFFSET -0.10214 1.57530 -0.23335
							CHANNELS 3 Zrotation Yrotation Xrotation
							End Site
							{
								OFFSET -0.03588 1.60717 -0.08062
							}
						}
					}
				}
				JOINT LeftCollar
				{
					OFFSET 0 0 0
					CHANNELS 3 Zrotation Yrotation Xrotation
					JOINT LeftShoulder
					{
						OFFSET 2.54983 1.10186 0.40078
CHANNELS 3 Zrotation Xrotation Yrotation
						JOINT LeftElbow
						{
OFFSET 0 -4.288400 0.000000
CHANNELS 3 Zrotation Xrotation Yrotation
							JOINT LeftWrist
							{
OFFSET 0 -3.065520 -0.000000
CHANNELS 3 Zrotation Xrotation Yrotation
								JOINT lhand
								{
									OFFSET 0 0 0
CHANNELS 3 Zrotation Xrotation Yrotation
									JOINT LFingers
									{
OFFSET 0 -0.753040 0.000000
CHANNELS 3 Zrotation Xrotation Yrotation
										End Site
										{
OFFSET 0 -0.607120 0.000000
										}
									}
								}
								JOINT LThumb
								{
OFFSET 0 0.000000 0.000000
CHANNELS 3 Zrotation Xrotation Yrotation
									End Site
									{
OFFSET 0 -0.616390 0.616390
									}
								}
							}
						}
					}
				}
				JOINT RightCollar
				{
					OFFSET 0 0 0
					CHANNELS 3 Zrotation Yrotation Xrotation
					JOINT RightShoulder
					{
						OFFSET -2.60909 1.35448 0.21802
CHANNELS 3 Zrotation Xrotation Yrotation
						JOINT RightElbow
						{
OFFSET 0 -4.521720 -0.000000
CHANNELS 3 Zrotation Xrotation Yrotation
							JOINT RightWrist
							{
OFFSET 0 -2.891400 0.000000
CHANNELS 3 Zrotation Xrotation Yrotation
								JOINT rhand
								{
									OFFSET 0 0 0
CHANNELS 3 Zrotation Xrotation Yrotation
									JOINT RFingers
									{
OFFSET 0 -0.680540 0.000000
CHANNELS 3 Zrotation Xrotation Yrotation
										End Site
										{
OFFSET 0 -0.548670 0.000000
										}
									}
								}
								JOINT RThumb
								{
OFFSET 0 0.000000 0.000000
CHANNELS 3 Zrotation Xrotation Yrotation
									End Site
									{
OFFSET 0 -0.557050 0.557050
									}
								}
							}
						}
					}
				}
			}
		}
	}
}
MOTION
Frames: 7
Frame Time: 0.008333333333333333
8.075385 15.525148 -36.042199 -179.374289 -46.016932 181.177255 0.000000 0.000000 0.000000 -29.679909 -14.100057 -2.970358 1.074096 6.588060 18.500629 -0.461208 20.169075 -24.700655 1.195264 -6.931621 -19.515102 0.000000 0.000000 0.000000 21.963537 -8.471404 -13.756848 -7.429463 -15.682786 50.479948 -0.597375 -9.766537 -21.251997 -0.826774 5.799606 -16.204476 1.358450 1.280655 5.869680 1.604070 1.844736 -6.009168 0.696059 0.800198 -9.683943 -3.643066 -4.642849 -0.842084 -0.509871 -6.334498 -5.127259 0.498079 -3.127990 -1.343569 0.000000 0.000000 0.000000 4.492378 13.985321 -38.743975 23.022447 -34.113394 7.150855 9.469760 10.023327 34.006277 0.000000 0.000000 0.000000 -7.125000 0.000000 0.000000 -12.691580 -3.651960 -13.808503 0.000000 0.000000 0.000000 -7.400737 8.285362 28.335811 -17.041243 -26.912121 -4.105944 -0.256289 21.802083 49.191830 0.000000 0.000000 0.000000 7.125000 0.000000 0.000000 62.455581 69.973494 -42.379190
8.031883 15.520902 -36.165053 -179.359668 -51.336145 180.761758 0.000000 0.000000 0.000000 -30.021876 -16.484983 -0.995271 1.066487 6.565414 18.434035 -0.678428 20.166881 -22.553763 2.456551 -9.756126 -28.192549 0.000000 0.000000 0.000000 21.130412 -4.713751 -13.847237 -7.618032 -15.831046 51.175010 -0.878308 -7.719270 -22.119920 -1.201351 6.952696 -19.575821 1.459741 1.505257 6.011314 1.423252 2.158436 -6.069178 0.398029 0.941112 -9.825021 -2.620064 -3.743533 -0.900268 -1.423537 -5.122702 -4.268094 0.030187 -2.530935 -1.129890 0.000000 0.000000 0.000000 4.522124 12.478027 -41.189887 22.755464 -33.820343 7.001737 7.799892 11.132017 32.723173 0.000000 0.000000 0.000000 -7.125000 0.000000 0.000000 -13.524036 -2.185450 -14.431999 0.000000 0.000000 0.000000 -7.039669 8.403236 30.661784 -16.899556 -26.725192 -4.042071 -2.190788 21.117305 48.982522 0.000000 0.000000 0.000000 7.125000 0.000000 0.000000 60.501947 70.537270 -41.396207
7.993290 15.487541 -36.298517 -178.775097 -56.642278 179.767013 0.000000 0.000000 0.000000 -29.739783 -17.446647 -0.329812 1.230606 7.034628 19.818377 -0.247288 17.051622 -21.750848 3.204915 -11.017525 -32.341354 0.000000 0.000000 0.000000 20.845309 -0.190480 -12.721446 -7.103379 -15.417963 49.263587 -1.006679 -7.248349 -22.893689 -1.859321 8.563552 -24.441369 1.630724 1.578123 5.923524 1.496945 2.291117 -5.762071 0.364988 1.009536 -9.430457 -2.059157 -1.863873 -2.234362 -1.636393 -2.544316 -3.115497 -0.164330 -1.266665 -0.574429 0.000000 0.000000 0.000000 3.936824 10.997431 -41.679854 22.394119 -33.419515 6.801634 8.686549 10.412819 32.991640 0.000000 0.000000 0.000000 -7.125000 0.000000 0.000000 -13.050374 -2.559521 -13.981548 0.000000 0.000000 0.000000 -6.728277 7.826147 31.653329 -16.972372 -26.821365 -4.074895 -2.789863 21.390976 48.248877 0.000000 0.000000 0.000000 7.125000 0.000000 0.000000 58.235488 70.381539 -39.352719
7.987256 15.455528 -36.446698 -177.789745 -63.262925 179.149614 0.000000 0.000000 0.000000 -28.842279 -18.866483 -1.497494 1.554850 7.869510 22.318567 0.275302 12.524346 -20.974559 4.014524 -12.177808 -36.366611 0.000000 0.000000 0.000000 20.596960 4.789787 -11.327996 -5.964396 -14.392835 44.837027 -1.374930 -4.334799 -24.090077 -1.718965 8.254374 -23.489476 1.827025 1.460565 6.199235 1.465911 2.161406 -6.258532 0.231060 0.918560 -10.136678 -1.080768 0.166897 -3.019476 -1.800738 0.208610 -1.653376 -0.365709 0.089922 -0.008574 0.000000 0.000000 0.000000 4.381683 10.632287 -44.185845 22.849501 -33.923760 7.054139 7.676704 9.603109 31.817916 0.000000 0.000000 0.000000 -7.125000 0.000000 0.000000 -13.542517 -1.291373 -14.245891 0.000000 0.000000 0.000000 -6.614847 8.709700 33.733219 -17.456329 -27.455252 -4.295671 -7.835511 23.181495 48.882840 0.000000 0.000000 0.000000 7.125000 0.000000 0.000000 55.948685 72.478254 -39.746291
7.959075 15.419949 -36.620601 -176.475257 -69.986093 177.746559 0.000000 0.000000 0.000000 -28.295808 -20.829131 -1.347384 1.784802 8.402558 23.943677 0.569217 8.923821 -20.185435 4.789022 -13.140350 -39.899353 0.000000 0.000000 0.000000 20.420816 9.941365 -8.718902 -4.796548 -13.150518 39.935374 -1.631260 0.123346 -24.136984 -1.838444 8.519199 -24.303783 1.809827 1.200285 5.995701 1.372340 1.803089 -6.307579 0.196906 0.746201 -10.068137 1.273195 2.559209 -3.096663 -2.796138 3.345822 -1.072932 -1.026337 1.643739 0.255338 0.000000 0.000000 0.000000 5.427093 10.328695 -46.238675 23.392251 -34.514850 7.359409 8.038291 8.997273 32.443356 0.000000 0.000000 0.000000 -7.125000 0.000000 0.000000 -13.375850 -1.943460 -14.209478 0.000000 0.000000 0.000000 -6.274773 8.842884 33.943206 -17.508555 -27.523235 -4.319711 -3.913730 20.424902 48.773653 0.000000 0.000000 0.000000 7.125000 0.000000 0.000000 58.672086 71.032887 -40.435607
7.936485 15.391668 -36.812100 -176.118853 -76.584732 176.456558 0.000000 0.000000 0.000000 -28.325942 -21.479862 -0.559202 1.912296 8.680838 24.802061 0.828748 4.136356 -19.179939 4.998828 -13.381239 -40.815292 0.000000 0.000000 0.000000 20.563891 15.675378 -4.724136 -4.055879 -12.234282 36.566003 -1.836932 3.507746 -24.759081 -1.806399 8.448354 -24.085741 1.327513 1.613162 6.310308 1.378527 2.336582 -5.964146 0.388135 1.053852 -9.891064 2.175742 4.666616 -3.873177 -3.401654 6.149480 0.036443 -1.293494 3.028459 0.841789 0.000000 0.000000 0.000000 5.224492 9.301153 -47.815476 23.179773 -34.284678 7.239323 7.398484 9.266059 30.806936 0.000000 0.000000 0.000000 -7.125000 0.000000 0.000000 -13.650183 -0.276964 -14.122137 0.000000 0.000000 0.000000 -6.833317 9.483302 34.550454 -17.434260 -27.426687 -4.285418 -10.439388 23.190220 49.655307 0.000000 0.000000 0.000000 7.125000 0.000000 0.000000 56.214066 73.815389 -41.358597
7.930471 15.384073 -37.001051 -170.358407 -83.595078 170.397180 0.000000 0.000000 0.000000 -27.575964 -22.968604 -0.717511 2.096862 9.064822 25.998386 0.996307 -0.458547 -18.725255 5.330572 -13.746343 -42.231312 0.000000 0.000000 0.000000 21.702079 19.559865 -1.786160 -3.626951 -11.646603 34.493130 -1.779534 6.124210 -24.002747 -1.925999 8.709508 -24.891182 1.420372 1.585687 6.458750 1.389134 2.324242 -5.932024 0.344884 1.045576 -9.941024 4.026372 7.111510 -3.430462 -4.257976 9.385538 0.627459 -1.790853 4.643790 1.194765 0.000000 0.000000 0.000000 6.147537 8.754639 -49.038300 23.548841 -34.683478 7.448297 7.540509 8.671457 31.176882 0.000000 0.000000 0.000000 -7.125000 0.000000 0.000000 -13.587512 -0.652856 -14.143176 0.000000 0.000000 0.000000 -7.026281 9.612861 33.224661 -16.773947 -26.558747 -3.985716 -7.438151 24.668855 49.339235 0.000000 0.000000 0.000000 7.125000 0.000000 0.000000 57.524077 72.561098 -41.142833
